<svg width="20" height="18" viewBox="0 0 20 18" fill="none" xmlns="http://www.w3.org/2000/svg">
<path fill-rule="evenodd" clip-rule="evenodd" d="M0.416626 1.50002C0.416626 1.03978 0.789722 0.666687 1.24996 0.666687H2.70829C3.09068 0.666687 3.424 0.926935 3.51675 1.29791L3.98394 3.16669H18.3333C18.5899 3.16669 18.8322 3.28491 18.9901 3.48718C19.1481 3.68944 19.204 3.95318 19.1417 4.20213L17.0584 12.5355C16.9657 12.9064 16.6324 13.1667 16.25 13.1667H5.41663C5.03424 13.1667 4.70092 12.9064 4.60817 12.5355L2.05765 2.33335H1.24996C0.789722 2.33335 0.416626 1.96026 0.416626 1.50002ZM4.40061 4.83335L6.06727 11.5H15.5993L17.266 4.83335H4.40061Z" fill="#C93E33"/>
<path fill-rule="evenodd" clip-rule="evenodd" d="M5.41663 13.1667C6.56722 13.1667 7.49996 14.0994 7.49996 15.25C7.49996 16.4006 6.56722 17.3334 5.41663 17.3334C4.26603 17.3334 3.33329 16.4006 3.33329 15.25C3.33329 14.0994 4.26603 13.1667 5.41663 13.1667ZM5.41663 14.8334C5.18651 14.8334 4.99996 15.0199 4.99996 15.25C4.99996 15.4801 5.18651 15.6667 5.41663 15.6667C5.64675 15.6667 5.83329 15.4801 5.83329 15.25C5.83329 15.0199 5.64675 14.8334 5.41663 14.8334Z" fill="#C93E33"/>
<path fill-rule="evenodd" clip-rule="evenodd" d="M16.25 13.1667C17.4006 13.1667 18.3333 14.0994 18.3333 15.25C18.3333 16.4006 17.4006 17.3334 16.25 17.3334C15.0994 17.3334 14.1666 16.4006 14.1666 15.25C14.1666 14.0994 15.0994 13.1667 16.25 13.1667ZM15.8333 15.25C15.8333 15.0199 16.0198 14.8334 16.25 14.8334C16.4801 14.8334 16.6666 15.0199 16.6666 15.25C16.6666 15.4801 16.4801 15.6667 16.25 15.6667C16.0198 15.6667 15.8333 15.4801 15.8333 15.25Z" fill="#C93E33"/>
</svg>
