<svg width="20" height="18" viewBox="0 0 20 18" fill="none" xmlns="http://www.w3.org/2000/svg">
<path fill-rule="evenodd" clip-rule="evenodd" d="M9.99722 0.250003C10.3145 0.249188 10.6048 0.428639 10.7458 0.712863L13.132 5.52073L18.4535 6.29668C18.767 6.34239 19.0274 6.56186 19.1256 6.86304C19.2238 7.16422 19.1427 7.49502 18.9164 7.71666L15.0457 11.5074L15.9648 16.7734C16.0195 17.0871 15.8907 17.4047 15.6328 17.5915C15.3748 17.7784 15.033 17.8019 14.7519 17.6521L9.9994 15.119L5.24797 17.652C4.96674 17.802 4.62463 17.7784 4.36665 17.5912C4.10867 17.4041 3.98001 17.0862 4.0352 16.7724L4.96095 11.5074L1.08405 7.71717C0.857363 7.49555 0.776058 7.1645 0.874291 6.86308C0.972524 6.56165 1.23328 6.34208 1.54702 6.29658L6.89743 5.52074L9.25101 0.716704C9.39061 0.431758 9.67992 0.250818 9.99722 0.250003ZM10.0042 2.96758L8.20063 6.64896C8.07954 6.89612 7.84424 7.06755 7.57186 7.10704L3.45476 7.70405L6.44037 10.6229C6.63707 10.8152 6.7262 11.0922 6.67856 11.3631L5.9728 15.3769L9.60733 13.4393C9.85234 13.3087 10.1463 13.3087 10.3913 13.4393L14.0294 15.3784L13.3284 11.3621C13.2812 11.0917 13.3702 10.8154 13.5663 10.6234L16.5482 7.70314L12.4594 7.10695C12.1888 7.06749 11.9548 6.89777 11.8332 6.6528L10.0042 2.96758Z" fill="#C93E33"/>
</svg>
