<svg width="13" height="13" viewBox="0 0 13 13" fill="none" xmlns="http://www.w3.org/2000/svg">
<path fill-rule="evenodd" clip-rule="evenodd" d="M6.4982 0.812502C6.70445 0.811972 6.8931 0.928616 6.98479 1.11336L8.5358 4.23847L11.9948 4.74284C12.1985 4.77255 12.3678 4.91521 12.4316 5.11098C12.4955 5.30675 12.4427 5.52176 12.2956 5.66583L9.77969 8.12981L10.3771 11.5527C10.4127 11.7566 10.329 11.963 10.1613 12.0845C9.99365 12.2059 9.77144 12.2212 9.58875 12.1238L6.49962 10.4773L3.41119 12.1238C3.22839 12.2213 3.00602 12.2059 2.83834 12.0843C2.67065 11.9627 2.58702 11.7561 2.62289 11.552L3.22463 8.1298L0.704646 5.66616C0.557298 5.52211 0.50445 5.30692 0.568301 5.111C0.632153 4.91507 0.801643 4.77235 1.00558 4.74278L4.48334 4.23848L6.01317 1.11586C6.10391 0.930643 6.29196 0.813032 6.4982 0.812502ZM6.50274 2.57893L5.33042 4.97183C5.25171 5.13247 5.09877 5.2439 4.92172 5.26958L2.2456 5.65763L4.18626 7.55489C4.31411 7.67988 4.37204 7.85992 4.34108 8.03602L3.88233 10.645L6.24478 9.38555C6.40403 9.30065 6.59511 9.30064 6.75437 9.38552L9.11915 10.6459L8.6635 8.03535C8.63282 7.85961 8.69065 7.68004 8.8181 7.55522L10.7563 5.65704L8.09863 5.26951C7.92273 5.24387 7.77061 5.13355 7.69159 4.97432L6.50274 2.57893Z" fill="#B3B3B3"/>
</svg>
