<svg width="11" height="11" viewBox="0 0 11 11" fill="none" xmlns="http://www.w3.org/2000/svg">
<path d="M3.66665 4.26823C3.66665 3.25571 4.48746 2.4349 5.49998 2.4349C6.5125 2.4349 7.33331 3.25571 7.33331 4.26823C7.33331 5.12249 6.74904 5.84029 5.95831 6.04381V6.5599C5.95831 6.81303 5.75311 7.01823 5.49998 7.01823C5.24685 7.01823 5.04165 6.81303 5.04165 6.5599V5.64323C5.04165 5.3901 5.24685 5.1849 5.49998 5.1849C6.00624 5.1849 6.41665 4.77449 6.41665 4.26823C6.41665 3.76197 6.00624 3.35156 5.49998 3.35156C4.99372 3.35156 4.58331 3.76197 4.58331 4.26823C4.58331 4.52136 4.37811 4.72656 4.12498 4.72656C3.87185 4.72656 3.66665 4.52136 3.66665 4.26823Z" fill="#C93E33"/>
<path d="M6.0729 8.04948C6.0729 8.36589 5.81639 8.6224 5.49998 8.6224C5.18357 8.6224 4.92706 8.36589 4.92706 8.04948C4.92706 7.73307 5.18357 7.47656 5.49998 7.47656C5.81639 7.47656 6.0729 7.73307 6.0729 8.04948Z" fill="#C93E33"/>
<path fill-rule="evenodd" clip-rule="evenodd" d="M1.93498 1.935C2.84685 1.02315 4.1079 0.458336 5.49998 0.458336C6.89206 0.458336 8.15311 1.02315 9.06497 1.935C9.97683 2.84687 10.5416 4.10792 10.5416 5.5C10.5416 6.89208 9.97683 8.15313 9.06497 9.06499C8.15311 9.97685 6.89206 10.5417 5.49998 10.5417C4.1079 10.5417 2.84685 9.97685 1.93498 9.06499C1.02313 8.15313 0.458313 6.89208 0.458313 5.5C0.458313 4.10792 1.02313 2.84687 1.93498 1.935ZM5.49998 1.375C4.36078 1.375 3.33015 1.83621 2.58316 2.58319C1.83618 3.33018 1.37498 4.3608 1.37498 5.5C1.37498 6.6392 1.83618 7.66983 2.58316 8.41681C3.33016 9.16379 4.36078 9.625 5.49998 9.625C6.63918 9.625 7.6698 9.16379 8.41679 8.41681C9.16377 7.66983 9.62498 6.6392 9.62498 5.5C9.62498 4.3608 9.16377 3.33018 8.41679 2.58319C7.6698 1.83621 6.63918 1.375 5.49998 1.375Z" fill="#C93E33"/>
</svg>
