<svg width="11" height="15" viewBox="0 0 11 15" fill="none" xmlns="http://www.w3.org/2000/svg">
<path d="M5.5 0.625C8.43402 0.625 10.8125 3.00348 10.8125 5.9375C10.8125 7.80348 9.95138 9.6904 8.51175 11.5316C8.0008 12.1851 7.44512 12.7944 6.87585 13.3493C6.82895 13.3951 6.78283 13.4396 6.73755 13.4829L6.47633 13.7279L6.23788 13.9428L6.02491 14.1267L5.89483 14.2345C5.66659 14.4205 5.33948 14.422 5.10957 14.238L4.97357 14.1255L4.76156 13.9423L4.52355 13.7278L4.26245 13.4829L4.12415 13.3493C3.55488 12.7944 2.9992 12.1851 2.48825 11.5316C1.04862 9.6904 0.1875 7.80348 0.1875 5.9375C0.1875 3.00348 2.56598 0.625 5.5 0.625ZM5.5 1.875C3.25633 1.875 1.4375 3.69383 1.4375 5.9375C1.4375 7.47259 2.18924 9.11983 3.47298 10.7617C3.94694 11.3678 4.4654 11.9363 4.99671 12.4543L5.24841 12.6951C5.33134 12.7729 5.41439 12.8508 5.5 12.9256L5.75156 12.6951L6.00329 12.4543C6.5346 11.9363 7.05306 11.3678 7.52702 10.7617C8.81076 9.11983 9.5625 7.47259 9.5625 5.9375C9.5625 3.69383 7.74367 1.875 5.5 1.875ZM5.5 3.4375C6.88071 3.4375 8 4.55679 8 5.9375C8 7.31821 6.88071 8.4375 5.5 8.4375C4.11929 8.4375 3 7.31821 3 5.9375C3 4.55679 4.11929 3.4375 5.5 3.4375ZM5.5 4.6875C4.80965 4.6875 4.25 5.24715 4.25 5.9375C4.25 6.62785 4.80965 7.1875 5.5 7.1875C6.19035 7.1875 6.75 6.62785 6.75 5.9375C6.75 5.24715 6.19035 4.6875 5.5 4.6875Z" fill="#C93E33"/>
</svg>
