<svg width="15" height="15" viewBox="0 0 15 15" fill="none" xmlns="http://www.w3.org/2000/svg">
<path fill-rule="evenodd" clip-rule="evenodd" d="M0.416687 1.83335C0.416687 1.05095 1.05095 0.416687 1.83335 0.416687H5.37502C6.15742 0.416687 6.79169 1.05095 6.79169 1.83335V5.37502C6.79169 6.15742 6.15742 6.79169 5.37502 6.79169H1.83335C1.05095 6.79169 0.416687 6.15742 0.416687 5.37502V1.83335ZM5.37502 1.83335H1.83335V5.37502H5.37502V1.83335ZM8.20836 1.83335C8.20836 1.05095 8.84262 0.416687 9.62502 0.416687H13.1667C13.9491 0.416687 14.5834 1.05095 14.5834 1.83335V5.37502C14.5834 6.15742 13.9491 6.79169 13.1667 6.79169H9.62502C8.84262 6.79169 8.20836 6.15742 8.20836 5.37502V1.83335ZM13.1667 1.83335H9.62502V5.37502H13.1667V1.83335ZM0.416687 9.62502C0.416687 8.84262 1.05095 8.20835 1.83335 8.20835H5.37502C6.15742 8.20835 6.79169 8.84262 6.79169 9.62502V13.1667C6.79169 13.9491 6.15742 14.5834 5.37502 14.5834H1.83335C1.05095 14.5834 0.416687 13.9491 0.416687 13.1667V9.62502ZM5.37502 9.62502H1.83335V13.1667H5.37502V9.62502ZM8.20836 9.62502C8.20836 8.84262 8.84262 8.20835 9.62502 8.20835H13.1667C13.9491 8.20835 14.5834 8.84262 14.5834 9.62502V13.1667C14.5834 13.9491 13.9491 14.5834 13.1667 14.5834H9.62502C8.84262 14.5834 8.20836 13.9491 8.20836 13.1667V9.62502ZM13.1667 9.62502H9.62502V13.1667H13.1667V9.62502Z" fill="#C93E33"/>
</svg>
