<svg width="10" height="10" viewBox="0 0 10 10" fill="none" xmlns="http://www.w3.org/2000/svg">
<path fill-rule="evenodd" clip-rule="evenodd" d="M0 1C0 0.447715 0.447715 0 1 0H3.5C4.05229 0 4.5 0.447715 4.5 1V3.5C4.5 4.05229 4.05229 4.5 3.5 4.5H1C0.447715 4.5 0 4.05229 0 3.5V1ZM3.5 1H1V3.5H3.5V1ZM5.5 1C5.5 0.447715 5.94772 0 6.5 0H9C9.55229 0 10 0.447715 10 1V3.5C10 4.05229 9.55229 4.5 9 4.5H6.5C5.94772 4.5 5.5 4.05229 5.5 3.5V1ZM9 1H6.5V3.5H9V1ZM0 6.5C0 5.94772 0.447715 5.5 1 5.5H3.5C4.05229 5.5 4.5 5.94772 4.5 6.5V9C4.5 9.55229 4.05229 10 3.5 10H1C0.447715 10 0 9.55229 0 9V6.5ZM3.5 6.5H1V9H3.5V6.5ZM5.5 6.5C5.5 5.94772 5.94772 5.5 6.5 5.5H9C9.55229 5.5 10 5.94772 10 6.5V9C10 9.55229 9.55229 10 9 10H6.5C5.94772 10 5.5 9.55229 5.5 9V6.5ZM9 6.5H6.5V9H9V6.5Z" fill="white"/>
</svg>
