<svg width="16" height="14" viewBox="0 0 16 14" fill="none" xmlns="http://www.w3.org/2000/svg">
<path d="M6.86001 1.57335L1.21335 11C1.09693 11.2016 1.03533 11.4302 1.03467 11.663C1.03402 11.8958 1.09434 12.1248 1.20963 12.327C1.32492 12.5293 1.49116 12.6978 1.69182 12.8159C1.89247 12.934 2.12055 12.9975 2.35335 13H13.6467C13.8795 12.9975 14.1076 12.934 14.3082 12.8159C14.5089 12.6978 14.6751 12.5293 14.7904 12.327C14.9057 12.1248 14.966 11.8958 14.9654 11.663C14.9647 11.4302 14.9031 11.2016 14.7867 11L9.14001 1.57335C9.02117 1.37742 8.85383 1.21543 8.65414 1.103C8.45446 0.99058 8.22917 0.931519 8.00001 0.931519C7.77086 0.931519 7.54557 0.99058 7.34588 1.103C7.1462 1.21543 6.97886 1.37742 6.86001 1.57335Z" fill="white" stroke="#C93E33" stroke-linecap="round" stroke-linejoin="round"/>
</svg>
